<?xml version="1.0" encoding="UTF-8"?>
<svg width="24px" height="24px" viewBox="0 0 24 24" version="1.1" xmlns="http://www.w3.org/2000/svg" xmlns:xlink="http://www.w3.org/1999/xlink">
    <!-- Generator: Sketch 49.3 (51167) - http://www.bohemiancoding.com/sketch -->
    <title>icons/timeline-card/own-goal</title>
    <desc>Created with Sketch.</desc>
    <defs>
        <path d="M10.2857143,20.5714286 C15.9663577,20.5714286 20.5714286,15.9663577 20.5714286,10.2857143 C20.5714286,4.60507086 15.9663577,0 10.2857143,0 C4.60507086,0 0,4.60507086 0,10.2857143 C0,15.9663577 4.60507086,20.5714286 10.2857143,20.5714286 Z" id="path-1"></path>
        <path d="M10.2857143,20.5714286 C15.9663577,20.5714286 20.5714286,15.9663577 20.5714286,10.2857143 C20.5714286,4.60507086 15.9663577,0 10.2857143,0 C4.60507086,0 0,4.60507086 0,10.2857143 C0,15.9663577 4.60507086,20.5714286 10.2857143,20.5714286 Z" id="path-3"></path>
        <path d="M10.2857143,20.5714286 C15.9663577,20.5714286 20.5714286,15.9663577 20.5714286,10.2857143 C20.5714286,4.60507086 15.9663577,0 10.2857143,0 C4.60507086,0 0,4.60507086 0,10.2857143 C0,15.9663577 4.60507086,20.5714286 10.2857143,20.5714286 Z" id="path-5"></path>
        <path d="M10.2857143,20.5714286 C15.9663577,20.5714286 20.5714286,15.9663577 20.5714286,10.2857143 C20.5714286,4.60507086 15.9663577,0 10.2857143,0 C4.60507086,0 0,4.60507086 0,10.2857143 C0,15.9663577 4.60507086,20.5714286 10.2857143,20.5714286 Z" id="path-7"></path>
        <path d="M10.2857143,20.5714286 C15.9663577,20.5714286 20.5714286,15.9663577 20.5714286,10.2857143 C20.5714286,4.60507086 15.9663577,0 10.2857143,0 C4.60507086,0 0,4.60507086 0,10.2857143 C0,15.9663577 4.60507086,20.5714286 10.2857143,20.5714286 Z" id="path-9"></path>
        <path d="M10.2857143,20.5714286 C15.9663577,20.5714286 20.5714286,15.9663577 20.5714286,10.2857143 C20.5714286,4.60507086 15.9663577,0 10.2857143,0 C4.60507086,0 0,4.60507086 0,10.2857143 C0,15.9663577 4.60507086,20.5714286 10.2857143,20.5714286 Z" id="path-11"></path>
    </defs>
    <g id="World-Cup-2018" stroke="none" stroke-width="1" fill="none" fill-rule="evenodd">
        <g id="B00_World_Cup" transform="translate(-908.000000, -187.000000)">
            <g id="icons/soccer/timeline-card/own-goal" transform="translate(908.000000, 187.000000)">
                <g id="soccer-ball-own-goal">
                    <circle id="Oval" fill="#FFFFFF" cx="12" cy="12" r="12"></circle>
                    <path d="M12,20.5714286 C16.7338695,20.5714286 20.5714286,16.7338695 20.5714286,12 C20.5714286,7.26613045 16.7338695,3.42857143 12,3.42857143 C7.26613043,3.42857143 3.42857143,7.26613043 3.42857143,12 C3.42857143,16.7338695 7.26613045,20.5714286 12,20.5714286 Z M12,22.2857143 C6.31935658,22.2857143 1.71428571,17.6806434 1.71428571,12 C1.71428571,6.31935658 6.31935658,1.71428571 12,1.71428571 C17.6806434,1.71428571 22.2857143,6.31935658 22.2857143,12 C22.2857143,17.6806434 17.6806434,22.2857143 12,22.2857143 Z" id="path-1" fill="#D0021B" fill-rule="nonzero"></path>
                    <g id="Soccer-ball" transform="translate(1.714286, 1.714286)">
                        <g id="Polygon-1-Clipped">
                            <mask id="mask-2" fill="white">
                                <use xlink:href="#path-1"></use>
                            </mask>
                            <g id="path-1"></g>
                            <polygon id="Polygon-1" fill="#D0021B" fill-rule="nonzero" mask="url(#mask-2)" points="12.300978 7.51194173 13.5464795 11.3452011 10.2857143 13.7142857 7.02494909 11.3452011 8.27045056 7.51194173"></polygon>
                        </g>
                        <g id="Polygon-1-copy-Clipped">
                            <mask id="mask-4" fill="white">
                                <use xlink:href="#path-3"></use>
                            </mask>
                            <g id="path-1"></g>
                            <polygon id="Polygon-1-copy" fill="#D0021B" fill-rule="nonzero" mask="url(#mask-4)" points="12.300978 3.45948684 13.5464795 -0.373772552 10.2857143 -2.74285714 7.02494909 -0.373772552 8.27045056 3.45948684"></polygon>
                        </g>
                        <g id="Polygon-1-copy-2-Clipped">
                            <mask id="mask-6" fill="white">
                                <use xlink:href="#path-5"></use>
                            </mask>
                            <g id="path-1"></g>
                            <polygon id="Polygon-1-copy-2" fill="#D0021B" fill-rule="nonzero" mask="url(#mask-6)" points="4.8 15.0857143 8.0607652 17.4547989 6.81526372 21.2880583 2.78473628 21.2880583 1.5392348 17.4547989"></polygon>
                        </g>
                        <g id="Polygon-1-copy-3-Clipped">
                            <mask id="mask-8" fill="white">
                                <use xlink:href="#path-7"></use>
                            </mask>
                            <g id="path-1"></g>
                            <polygon id="Polygon-1-copy-3" fill="#D0021B" fill-rule="nonzero" mask="url(#mask-8)" points="15.7714286 15.0857143 12.5106634 17.4547989 13.7561649 21.2880583 17.7866923 21.2880583 19.0321938 17.4547989"></polygon>
                        </g>
                        <g id="Polygon-1-copy-3-Clipped">
                            <mask id="mask-10" fill="white">
                                <use xlink:href="#path-9"></use>
                            </mask>
                            <g id="path-1"></g>
                            <polygon id="Polygon-1-copy-3" fill="#D0021B" fill-rule="nonzero" mask="url(#mask-10)" points="-1.32954944 10.3166297 2.70097801 10.3166297 3.94647948 6.4833703 0.685714286 4.11428571 -2.57505091 6.4833703"></polygon>
                        </g>
                        <g id="Polygon-1-copy-4-Clipped">
                            <mask id="mask-12" fill="white">
                                <use xlink:href="#path-11"></use>
                            </mask>
                            <g id="path-1"></g>
                            <polygon id="Polygon-1-copy-4" fill="#D0021B" fill-rule="nonzero" mask="url(#mask-12)" points="21.900978 10.3166297 17.8704506 10.3166297 16.6249491 6.4833703 19.8857143 4.11428571 23.1464795 6.4833703"></polygon>
                        </g>
                    </g>
                </g>
            </g>
        </g>
    </g>
</svg>